<?xml version="1.0" encoding="utf-8"?>
<!-- Generator: Adobe Illustrator 25.2.1, SVG Export Plug-In . SVG Version: 6.00 Build 0)  -->
<svg version="1.1" id="Layer_1" xmlns="http://www.w3.org/2000/svg" xmlns:xlink="http://www.w3.org/1999/xlink" x="0px" y="0px"
	 viewBox="0 0 1120 673" style="enable-background:new 0 0 1120 673;" xml:space="preserve">
<path d="M549.9,26.7c-19.5,3.8-35.1,18.8-42,40.2c-2.4,7.2-3.2,14.9-4.3,39c-1.8,39.2-1.8,67.8,0,71.1c2.1,3.8,5,3.3,7.9-1.1
	c2.2-3.3,2.6-9,3.3-51.9c0.8-47,0.8-48.1,4.3-57.3c4.5-11.7,9.3-18.4,17.7-23.5c8.8-5.6,15.7-7.2,28.1-6.5
	c13.5,0.8,24.2,5.7,34,15.7c7.8,7.9,15.9,22.3,19.3,34.1c2.6,9.5,5.6,34,4.5,37c-0.7,1.9-3.3,2.2-18.9,1.8l-18.1-0.6v5.1
	c0,5.4,2.2,25.5,7.7,70c1.8,15.3,4.3,36.9,5.4,48c4,38.4,14.8,132.9,15.6,136.7l0.8,3.9h52.3c28.8,0,53.9-0.4,55.5-0.8
	c4.5-1.3,7.7-7,7.7-13.4c-0.1-3.1-1.1-12.5-2.2-21c-8.5-61.5-11.1-80.7-16.7-122c-3.5-25.6-7.2-53.2-8.3-61.2
	c-1.1-8.1-2.5-18.1-2.9-22.3c-1.4-12.1-3.3-17.8-6.7-20.2c-2.4-1.7-8.1-2.1-31.2-2.1h-28.2v-6c0-9-4-31.2-7.5-40.8
	C613,40.8,582.7,20.2,549.9,26.7z M640.6,170.8c2.8,6,1.1,11.6-4.5,15.2c-9,6-21.6-6.8-15.7-16c1.4-2.4,1.4-2.4,4.6,4.6
	c1.9,4.2,3.1,5.3,5.6,4.9c2.4-0.3,3.2-1.4,3.5-5.3C634.9,164.2,637,163.1,640.6,170.8z"/>
<path d="M428.1,128.9c-4.3,4-4.2,2.9-9.5,42.4c-2.4,17.3-5.4,40.1-7,50.8c-1.5,10.7-4.6,33.5-7,50.8c-2.2,17.3-6.3,47.7-9,67.8
	c-5.1,38.7-5.1,41.3,1,45.5c2.8,1.9,9.5,2.2,52.2,2.2h49.1l-0.6-3.2c-0.4-1.7-1.9-12.5-3.6-23.9c-1.5-11.6-4.6-34.4-7-50.8
	c-2.2-16.4-4.7-35.2-5.6-41.7c-0.7-6.5-1.9-15.6-2.8-20.2c-0.7-4.6-2.6-18.4-4.2-30.6c-3.6-27.7-11-82-12-88.1l-0.7-4.5h-14.9
	C432.8,125.4,431.6,125.7,428.1,128.9z"/>
<path d="M177.5,495.3c-0.4,0.6-3.9,9.5-7.7,19.8c-3.9,10.3-13.6,36-21.8,57.1c-14.2,36.6-25.7,67.5-25.7,69c0,0.3,6.4,0.4,14.3,0.3
	l14.2-0.4l6.1-16.4l6.3-16.4l20.7,0.4l20.7,0.4l5.1,14.8c2.9,8.1,5.7,15.4,6.3,16.3c0.7,1.1,5.7,1.7,14.9,1.7
	c13.8,0,13.9,0,13.1-3.2c-0.8-2.8-7.4-20.5-36.6-100.5c-5.3-14.6-11.1-30.3-12.8-35.2l-3.2-8.6h-6.7
	C181.1,494.2,177.7,494.6,177.5,495.3z M189.7,567.1c2.6,7.4,4.9,14.1,4.9,14.8c0,0.8-5,1.4-11.1,1.4c-6.1,0-11.1-0.3-11.1-0.6
	s0.8-2.6,1.9-5.1c1-2.6,3.6-9.3,5.7-14.9s4-10,4.3-9.7C184.6,553.2,186.9,559.6,189.7,567.1z"/>
<path d="M55.7,497.8c-13.8,3.6-22.1,10.2-27.3,21.4c-4.2,9-4,27.7,0.1,35.5c6.3,12,15.4,18.5,33.5,24.4c7.4,2.5,15.7,5.6,18.5,7
	c6.3,3.3,10.2,10.7,8.9,17.1c-1.9,9-9,13.5-21.8,13.5c-10.2,0-14.2-2.1-22.7-12l-5.7-6.5l-4.7,2.5c-9.2,4.7-15.3,9.5-15.3,11.7
	c0,3.8,9.5,16.7,15.4,21c10.7,7.8,19.6,10,36,9.5c18.4-0.7,26.4-3.9,35.9-14.2c7.5-8.3,11.4-18.5,11.4-30.3
	c0-22-10.3-33.5-38.5-42.7C57.9,548.4,54,545.4,54,535.2c0-9.5,5-13.2,17.5-13.2c7.2,0,9.3,0.6,14.2,4c3.1,2.4,6,5.4,6.5,7
	c0.4,1.7,1.5,2.9,2.2,2.9c2.8,0,22.1-14.1,22.1-16c0-3.2-9.5-12.9-16.4-17C88.3,496,70.3,493.7,55.7,497.8z"/>
<path d="M602.3,497.8c-14.2,3.8-25.7,14.2-29.1,26.3c-1.9,7-1.9,20.6-0.1,27.3c1.9,6.8,10.7,16.6,18.9,21c3.8,1.9,13.4,5.7,21.4,8.2
	c18,5.6,23.7,10.2,23.7,19.3c0,7.2-1.5,10.2-7.5,13.8c-3.3,2.1-7,2.9-13.1,2.9c-11.3,0-14.9-1.5-23.5-10.2l-7.4-7.1l-8.3,4
	c-4.6,2.2-9.5,5.1-10.6,6.5c-2.1,2.2-1.9,2.9,1.3,8.5c4.7,8.1,14.9,17.1,23,20.6c3.6,1.5,10.6,3.3,15.6,3.8
	c26.3,2.8,46.2-6,55.9-24.8c2.6-5.3,3.2-8.3,3.2-19.5c0-15.2-2.4-21.4-11.1-28.9c-6.8-6.1-13.5-9.2-31.2-15
	c-17.8-5.7-22.4-9.6-22.4-18.6c0-7.8,4.6-12.7,12.8-13.5c10.4-1.3,16,0.6,22.3,6.8l5.7,5.7l4.3-2.4c2.4-1.3,7.2-4.5,11-7.2
	c6.5-4.7,6.5-4.9,4.6-8.8C653.2,500.4,625.4,491.7,602.3,497.8z"/>
<path d="M874.6,499c-23.9,6.5-44,27.1-50.4,51.5c-2.6,10.3-2.6,28.2,0,38.1c6.3,23.5,24.4,42.7,47.7,50.5c11.8,3.9,27,4.7,37.6,1.9
	c32.3-8.2,53.6-32.6,56.8-65c3.5-34.8-19.8-68.3-53.3-77.1C903.5,496.5,883.8,496.5,874.6,499z M908.6,528.3
	c28.5,9.7,36.7,51.8,14.3,73.8c-15.3,14.9-40.6,15.7-55.9,1.7c-8.9-8.3-13.1-17.5-13.9-30.5c-0.8-14.2,2.2-24.1,10.6-33.3
	c6.1-6.8,11.3-10.3,18.4-12.5C888,525.6,902.2,526,908.6,528.3z"/>
<path d="M257.2,570v71.7h40.4h40.5l-0.4-12.9l-0.4-12.8l-25.3-0.4l-25.5-0.3l-0.1-54c-0.1-29.6-0.1-54.4,0-55.1
	c0.1-0.8,0-2.8-0.6-4.6c-0.7-3.1-1.3-3.2-14.6-3.2h-13.9V570z"/>
<path d="M357.4,570v71.7h45.2h45.2v-13.2v-13.2h-30.6h-30.6v-16v-16l27.6-0.3l27.4-0.4V570v-12.5l-27.6-0.4l-27.6-0.3l0.4-16.4
	l0.4-16.3l30.3-0.4l30.2-0.3v-12.5v-12.5h-45.2h-45.2V570z"/>
<path d="M687.2,570v71.7h15.3h15.3v-29.1c0-26.6,0.3-29.1,2.5-29.5c4.3-1,54.6,0.8,54.6,1.8c0,0.7,0,13.6,0,28.9v27.8h14.6h14.6V570
	v-71.7h-14.5c-11.7,0-14.6,0.4-15.3,2.1c-0.4,1.3-0.4,14.1,0.1,28.5l0.8,26.4h-28.7h-28.8l-0.3-28.2l-0.4-28.1l-14.9-0.4l-15-0.4
	V570z"/>
<path d="M985,570v71.8l15-0.4l14.9-0.4l0.1-20.2c0-11.1,0.1-20.9,0.3-21.8c0.1-1.1,7.1-1.7,23-2.1c25.5-0.6,30.5-1.9,41.3-11.7
	c18.2-16.4,19.9-51.9,3.5-71.2c-3.1-3.3-8.8-7.5-14.3-10.3l-9.2-4.6l-37.3-0.4l-37.3-0.4V570z M1054.7,528.7c7.2,4.5,10,11,9.3,22
	c-0.4,7.8-1.1,9.5-5.3,13.8c-6.1,6.3-11.3,7.7-28.8,7.7h-14.2l-0.4-23.1c-0.3-12.7-0.1-23.4,0.3-23.8c0.4-0.4,8.2-0.4,17.4-0.1
	C1047.5,525.5,1050.4,525.9,1054.7,528.7z"/>
<path d="M477.6,560.3c-0.4,1-0.6,6-0.3,11.1c0.4,9.5,0.4,9.6,4.9,10.7c2.5,0.7,18.1,1,34.8,0.8l30.3-0.4l0.4-11.6
	c0.3-6.3-0.1-11.4-0.7-11.4C512.4,558.4,478.2,558.9,477.6,560.3z"/>
</svg>
