<?xml version="1.0" standalone="no"?>
<!DOCTYPE svg PUBLIC "-//W3C//DTD SVG 20010904//EN"
 "http://www.w3.org/TR/2001/REC-SVG-20010904/DTD/svg10.dtd">
<svg version="1.0" xmlns="http://www.w3.org/2000/svg"
 width="1120.000000pt" height="1120.000000pt" viewBox="0 0 1120.000000 1120.000000"
 preserveAspectRatio="xMidYMid meet">

<g transform="translate(0.000000,1120.000000) scale(0.100000,-0.100000)"
fill="#000000" stroke="none">
<path d="M5533 8019 c-140 -27 -252 -135 -302 -289 -17 -52 -23 -107 -31 -280
-13 -282 -13 -487 0 -511 15 -27 36 -24 57 8 16 24 19 65 24 373 6 338 6 346
31 412 32 84 67 132 127 169 63 40 113 52 202 47 97 -6 174 -41 244 -113 56
-57 114 -160 139 -245 19 -68 40 -244 32 -266 -5 -14 -24 -16 -136 -13 l-130
4 0 -37 c0 -39 16 -183 55 -503 13 -110 31 -265 39 -345 29 -276 106 -955 112
-982 l6 -28 376 0 c207 0 387 3 399 6 32 9 55 50 55 96 -1 22 -8 90 -16 151
-61 442 -80 580 -120 877 -25 184 -52 382 -60 440 -8 58 -18 130 -21 160 -10
87 -24 128 -48 145 -17 12 -58 15 -224 15 l-203 0 0 43 c0 65 -29 224 -54 293
-99 272 -317 420 -553 373z m652 -1035 c20 -43 8 -83 -32 -109 -65 -43 -155
49 -113 115 10 17 10 17 33 -33 14 -30 22 -38 40 -35 17 2 23 10 25 38 6 71
21 79 47 24z"/>
<path d="M4658 7285 c-31 -29 -30 -21 -68 -305 -17 -124 -39 -288 -50 -365
-11 -77 -33 -241 -50 -365 -16 -124 -45 -343 -65 -487 -37 -278 -37 -297 7
-327 20 -14 68 -16 375 -16 l353 0 -4 23 c-3 12 -14 90 -26 172 -11 83 -33
247 -50 365 -16 118 -34 253 -40 300 -5 47 -14 112 -20 145 -5 33 -19 132 -30
220 -26 199 -79 589 -86 633 l-5 32 -107 0 c-100 0 -109 -2 -134 -25z"/>
<path d="M2857 4652 c-3 -4 -28 -68 -55 -142 -28 -74 -98 -259 -157 -410 -102
-263 -185 -485 -185 -496 0 -2 46 -3 103 -2 l102 3 44 118 45 118 149 -3 149
-3 37 -106 c21 -58 41 -111 45 -117 5 -8 41 -12 107 -12 99 0 100 0 94 23 -6
20 -53 147 -263 722 -38 105 -80 218 -92 253 l-23 62 -48 0 c-26 0 -50 -3 -52
-8z m88 -516 c19 -53 35 -101 35 -106 0 -6 -36 -10 -80 -10 -44 0 -80 2 -80 4
0 2 6 19 14 37 7 19 26 67 41 107 15 40 29 72 31 70 2 -2 19 -48 39 -102z"/>
<path d="M1982 4634 c-99 -26 -159 -73 -196 -154 -30 -65 -29 -199 1 -255 45
-86 111 -133 241 -175 53 -18 113 -40 133 -50 45 -24 73 -77 64 -123 -14 -65
-65 -97 -157 -97 -73 0 -102 15 -163 86 l-41 47 -34 -18 c-66 -34 -110 -68
-110 -84 0 -27 68 -120 111 -151 77 -56 141 -72 259 -68 132 5 190 28 258 102
54 60 82 133 82 218 0 158 -74 241 -277 307 -155 51 -183 73 -183 146 0 68 36
95 126 95 52 0 67 -4 102 -29 22 -17 43 -39 47 -50 3 -12 11 -21 16 -21 20 0
159 101 159 115 0 23 -68 93 -118 122 -86 50 -215 66 -320 37z"/>
<path d="M5910 4634 c-102 -27 -185 -102 -209 -189 -14 -50 -14 -148 -1 -196
14 -49 77 -119 136 -151 27 -14 96 -41 154 -59 129 -40 170 -73 170 -139 0
-52 -11 -73 -54 -99 -24 -15 -50 -21 -94 -21 -81 0 -107 11 -169 73 l-53 51
-60 -29 c-33 -16 -68 -37 -76 -47 -15 -16 -14 -21 9 -61 34 -58 107 -123 165
-148 26 -11 76 -24 112 -27 189 -20 332 43 402 178 19 38 23 60 23 140 0 109
-17 154 -80 208 -49 44 -97 66 -224 108 -128 41 -161 69 -161 134 0 56 33 91
92 97 75 9 115 -4 160 -49 l41 -41 31 17 c17 9 52 32 79 52 47 34 47 35 33 63
-60 116 -260 179 -426 135z"/>
<path d="M7867 4625 c-172 -47 -316 -195 -362 -370 -19 -74 -19 -203 0 -274
45 -169 175 -307 343 -363 85 -28 194 -34 270 -14 232 59 385 234 408 467 25
250 -142 491 -383 554 -69 18 -210 18 -276 0z m244 -210 c205 -70 264 -372
103 -530 -110 -107 -292 -113 -402 -12 -64 60 -94 126 -100 219 -6 102 16 173
76 239 44 49 81 74 132 90 43 13 145 10 191 -6z"/>
<path d="M3430 4115 l0 -515 290 0 291 0 -3 93 -3 92 -182 3 -183 2 -1 388
c-1 213 -1 391 0 396 1 6 0 20 -4 33 -5 22 -9 23 -105 23 l-100 0 0 -515z"/>
<path d="M4150 4115 l0 -515 325 0 325 0 0 95 0 95 -220 0 -220 0 0 115 0 115
198 2 197 3 0 90 0 90 -198 3 -198 2 3 118 3 117 218 3 217 2 0 90 0 90 -325
0 -325 0 0 -515z"/>
<path d="M6520 4115 l0 -515 110 0 110 0 0 209 c0 191 2 209 18 212 31 7 392
-6 392 -13 0 -5 0 -98 0 -208 l0 -200 105 0 105 0 0 515 0 515 -104 0 c-84 0
-105 -3 -110 -15 -3 -9 -3 -101 1 -205 l6 -190 -206 0 -207 0 -2 203 -3 202
-107 3 -108 3 0 -516z"/>
<path d="M8660 4115 l0 -516 108 3 107 3 1 145 c0 80 1 150 2 157 1 8 51 12
165 15 183 4 219 14 297 84 131 118 143 373 25 512 -22 24 -63 54 -103 74
l-66 33 -268 3 -268 3 0 -516z m501 297 c52 -32 72 -79 67 -158 -3 -56 -8 -68
-38 -99 -44 -45 -81 -55 -207 -55 l-102 0 -3 166 c-2 91 -1 168 2 171 3 3 59
3 125 1 104 -3 125 -6 156 -26z"/>
<path d="M5014 4185 c-3 -7 -4 -43 -2 -80 3 -68 3 -69 35 -77 18 -5 130 -7
250 -6 l218 3 3 83 c2 45 -1 82 -5 82 -249 8 -495 5 -499 -5z"/>
</g>
</svg>
